<svg width="715" height="481" viewBox="0 0 715 481" fill="none" 
    xmlns="http://www.w3.org/2000/svg">
    <path fill-rule="evenodd" clip-rule="evenodd" d="M530.823 84.6498C523.538 89.0409 516.38 91.1625 513.02 90.2964C504.594 88.1246 503.82 57.3019 510.339 45.1507C516.858 32.9994 550.372 27.7031 552.061 51.7786C552.647 60.1345 549.139 67.5915 543.955 73.6764L553.25 117H526.25L530.823 84.6498Z" fill="#B28B67"/>
    <path fill-rule="evenodd" clip-rule="evenodd" d="M512.102 40.4389C512.338 38.9707 511.87 38.2501 517.773 34.1136C523.677 29.9772 533.208 25.0987 542.808 27.2218C555.267 29.9772 560.215 38.1952 565.019 42.1904C569.35 45.792 573.695 46.2121 576.271 50.6812C578.846 55.1503 580.216 68.0077 577.977 73.1194C574.888 80.1707 568.796 82.0697 564.349 84.1012C556.723 87.5853 545.944 83.9056 545.683 83.2961C543.663 78.5811 532.79 65.2802 526.25 59.6921C521.441 55.5829 510.992 47.3301 512.102 40.4389Z" fill="#5C63AB"/>
    <mask id="mask0" mask-type="alpha" maskUnits="userSpaceOnUse" x="512" y="26" width="68" height="60">
        <path fill-rule="evenodd" clip-rule="evenodd" d="M512.102 40.4389C512.338 38.9707 511.87 38.2501 517.773 34.1136C523.677 29.9772 533.208 25.0987 542.808 27.2218C555.267 29.9772 560.215 38.1952 565.019 42.1904C569.35 45.792 573.695 46.2121 576.271 50.6812C578.846 55.1503 580.216 68.0077 577.977 73.1194C574.888 80.1707 568.796 82.0697 564.349 84.1012C556.723 87.5853 545.944 83.9056 545.683 83.2961C543.663 78.5811 532.79 65.2802 526.25 59.6921C521.441 55.5829 510.992 47.3301 512.102 40.4389Z" fill="white"/>
    </mask>
    <g mask="url(#mask0)">
        <path fill-rule="evenodd" clip-rule="evenodd" d="M549.162 74.5009C562.073 58.5782 565.111 39.375 565.111 39.375L569 41.8348C569 41.8348 564.217 62.8199 549.162 74.5009ZM544.25 83.25C565.144 64.8912 570.127 44.2599 570.127 44.2599L574.625 45.5861C574.625 45.5861 568.426 68.6569 544.25 83.25Z" fill="black" fill-opacity="0.2"/>
    </g>
    <path fill-rule="evenodd" clip-rule="evenodd" d="M571.213 212L528.941 350.467L508.464 468.223H492.408L514.046 212H571.213Z" fill="#997659"/>
    <path fill-rule="evenodd" clip-rule="evenodd" d="M586.336 212C583.465 288.026 586.844 327.241 587.486 334.148C588.129 341.055 596.928 385.842 617.76 470.542L600.651 464.655C567.729 386.973 556.51 346.6 552.734 336.399C548.958 326.199 538.929 284.732 522.648 212H586.336Z" fill="#B28B67"/>
    <path fill-rule="evenodd" clip-rule="evenodd" d="M614.761 463.204C615.831 462.725 617.106 463.203 617.509 464.303C618.334 466.556 619.517 470.132 619.517 472.115C619.517 475.159 618.504 481 618.504 481C614.979 481 555.146 481 555.146 481C555.146 481 552.677 472.819 557.998 472.167C563.319 471.515 566.838 470.989 566.838 470.989L596.401 457.784C596.916 457.554 597.519 457.795 597.734 458.317L599.675 463.035C599.675 463.035 604.601 465.338 607.68 465.338C609.632 465.338 612.744 464.106 614.761 463.204Z" fill="#E4E4E4"/>
    <path fill-rule="evenodd" clip-rule="evenodd" d="M509.168 463.204C510.238 462.725 511.513 463.203 511.916 464.303C512.74 466.556 513.923 470.132 513.923 472.115C513.923 475.159 512.911 481 512.911 481C509.386 481 449.553 481 449.553 481C449.553 481 447.083 472.819 452.404 472.167C457.725 471.515 461.245 470.989 461.245 470.989L490.808 457.784C491.323 457.554 491.926 457.795 492.14 458.317L494.082 463.035C494.082 463.035 499.007 465.338 502.087 465.338C504.039 465.338 507.15 464.106 509.168 463.204Z" fill="#E4E4E4"/>
    <path fill-rule="evenodd" clip-rule="evenodd" d="M576.83 212L558.857 282.547H503.959L512.144 212H576.83Z" fill="#69A1AC"/>
    <path fill-rule="evenodd" clip-rule="evenodd" d="M586.94 212C595.811 238.642 590.31 282.547 590.31 282.547H534.289L518.885 212H586.94Z" fill="#89C5CC"/>
    <path fill-rule="evenodd" clip-rule="evenodd" d="M416.054 99.8415L460.059 106.56L451.798 126.004L416.255 111.331C400.801 112.573 393.347 112.082 393.894 109.857C394.356 107.981 396.006 107.44 397.525 106.942C398.709 106.555 399.814 106.193 400.217 105.245C401.136 103.082 396.201 98.4797 391.331 94.3125C386.461 90.1454 389.792 89.4512 391.876 89.5474C399.257 91.3959 407.316 94.8272 416.054 99.8415ZM442.36 211.395L474.235 180.352L484.815 198.633L451.672 218.145C443.36 231.214 438.478 236.861 437.027 235.086C435.804 233.59 436.365 231.949 436.882 230.438C437.285 229.261 437.661 228.162 437.145 227.272C435.968 225.238 429.315 226.404 423.048 227.781C416.781 229.158 418.232 226.084 419.564 224.48C425.488 219.708 433.086 215.346 442.36 211.395Z" fill="#B28B67"/>
    <path fill-rule="evenodd" clip-rule="evenodd" d="M519.573 102.444C505.283 141.183 481.18 172.727 444.645 207.132L462.436 222.263C505.371 199.093 527.853 185.595 534.81 149.914C536.556 140.959 534.789 113.442 534.542 98.8685L519.573 102.444Z" fill="#2026A2"/>
    <path fill-rule="evenodd" clip-rule="evenodd" d="M590.538 214.848L504.756 226.904C504.756 226.904 521.432 134.073 517.416 100.916C517.28 99.7888 519.081 97.516 520.037 97.6461C530.529 99.0729 541.336 92.4831 541.336 92.4831C566.261 122.274 578.943 161.482 590.538 214.848Z" fill="#F2F2F2"/>
    <path fill-rule="evenodd" clip-rule="evenodd" d="M526.819 145.317C521.484 204.568 528.701 251.442 558.28 247.285L604.019 240.857C604.434 191.103 575.846 126.217 553.356 94.6229C552.497 93.4165 550.713 91.1652 547.324 91.6416L534.033 93.5094C534.03 93.5278 534.027 93.5462 534.023 93.5646C530.028 94.1593 525.645 94.9243 520.897 95.7527C496.457 100.017 462.378 105.964 422.117 99.0319L420.759 122.327C458.67 139.764 496.311 152.109 526.819 145.317Z" fill="#1F28CF"/>
    <path fill-rule="evenodd" clip-rule="evenodd" d="M166.181 85.5838C173.455 89.9714 180.602 92.0913 183.957 91.2259C192.37 89.0558 193.144 58.2572 186.634 46.1154C180.125 33.9737 146.661 28.6815 144.974 52.7382C144.388 61.0875 147.892 68.5388 153.068 74.6189L143.787 117.909H170.747L166.181 85.5838Z" fill="#B28B67"/>
    <path fill-rule="evenodd" clip-rule="evenodd" d="M175.985 32.8913C172.301 31.7672 166.954 31.3859 164.704 31.6438C165.984 28.5756 166.492 25.1573 166.078 21.8289C165.675 18.5948 164.231 15.841 162.895 12.9554C162.28 11.6254 161.582 10.3025 160.542 9.28517C159.482 8.2487 158.141 7.56454 156.734 7.23814C155.295 6.90403 153.79 6.93185 152.348 7.23505C151.711 7.36917 151.138 7.66095 150.513 7.82316C149.872 7.98935 149.562 7.58819 149.097 7.18503C147.977 6.21362 146.334 5.73407 144.917 5.56245C143.326 5.36998 141.676 5.61002 140.16 6.13315C138.684 6.64242 137.265 7.46939 136.198 8.67414C135.723 9.21041 135.292 9.82081 135.011 10.4947C134.896 10.7713 134.877 10.9351 134.602 11.0364C134.346 11.1302 134.048 11.1329 133.785 11.2222C131.24 12.0849 129.063 14.0529 127.878 16.5798C127.187 18.0539 126.86 20.6494 126.949 23.5585C127.039 26.4676 129.664 34.0582 132.119 36.8269C134.31 39.2982 137.532 40.9291 140.64 41.643C138.577 44.0031 137.203 46.9523 136.188 49.9517C135.084 53.2099 134.402 56.5952 134.15 60.0446C133.91 63.3218 133.888 66.7875 134.656 69.9948C135.374 72.9942 136.91 75.4547 139.474 77.0157C140.648 77.7307 141.912 78.2679 143.183 78.7589C144.436 79.2427 145.692 79.7131 147.004 79.9846C149.488 80.4982 152.349 80.41 154.262 78.432C154.951 77.7189 155.709 76.8229 156.212 75.9518C156.393 75.6386 156.502 75.4337 156.283 75.1275C156.019 74.7608 155.594 74.4798 155.255 74.1929C153.327 72.5571 152.134 70.3734 151.833 67.7784C151.527 65.1453 152.234 61.7467 154.792 60.5976C157.95 59.1791 161.428 60.8073 164.234 62.325C165.427 58.1121 167.877 54.3187 171.717 52.3862C175.965 50.2483 180.84 49.9981 185.205 48.1638C186.343 47.6858 187.502 47.1431 188.339 46.1692C188.689 45.7621 189.1 45.2341 189.24 44.6958C189.423 43.9886 188.967 43.3957 188.615 42.8444C186.749 39.9211 179.669 34.0154 175.985 32.8913Z" fill="#191847"/>
    <path fill-rule="evenodd" clip-rule="evenodd" d="M141.54 407.932C189.311 407.932 228.037 370.941 228.037 325.309C228.037 279.678 189.311 242.686 141.54 242.686C93.7692 242.686 55.0433 279.678 55.0433 325.309C55.0433 370.941 93.7692 407.932 141.54 407.932Z" fill="#C5CFD6"/>
    <path fill-rule="evenodd" clip-rule="evenodd" d="M276.015 320.903C280.193 335.548 290.602 363.306 304.995 395.184L318.672 391.191C306.707 317.837 296.749 269.273 291.045 254.492C287.276 244.726 258.764 245.87 262.044 265.52C263.419 273.761 268.861 295.826 276.015 320.903ZM219.8 268.947C197.495 273.571 151.25 289.918 138.045 295.142C129.745 298.425 135.095 309.558 142.176 308.584C143.375 308.419 147.617 307.944 153.946 307.236C174.276 304.96 216.143 300.273 247.896 295.699C264.615 293.291 255.621 261.952 238.261 265.268C232.421 266.384 226.209 267.618 219.8 268.947Z" fill="#B28B67"/>
    <path fill-rule="evenodd" clip-rule="evenodd" d="M291.919 246.214C289.639 238.767 185.982 212.335 185.982 212.335H177.487V220.256L248.916 256.644C248.821 257.818 248.879 259.059 249.11 260.368C248.594 287.343 260.131 307.495 271.553 327.447C279.023 340.494 286.444 353.456 290.413 368.185L316.656 364.267C315.891 362.31 314.682 353.489 313.03 341.428C308.862 311.016 301.873 260.007 292.067 246.512C292.032 246.465 291.998 246.418 291.962 246.371C291.95 246.319 291.935 246.266 291.919 246.214Z" fill="#1F28CF"/>
    <path fill-rule="evenodd" clip-rule="evenodd" d="M183.421 278.254C176.886 276.945 170.867 275.776 165.717 274.872C132.451 269.034 122.751 251.214 128.486 212.335H189.778C199.79 215.213 251.822 237.049 278.819 248.662C296.687 256.349 291.054 284.059 280.935 291.27C280.881 291.713 280.698 292.013 280.374 292.148C242.011 308.059 209.297 306.872 188.29 306.109C179.491 305.79 172.746 305.545 168.5 306.662L161.847 285.66L183.421 278.254Z" fill="#2B44FF"/>
    <path fill-rule="evenodd" clip-rule="evenodd" d="M145.043 293.783C145.004 292.612 144.017 291.678 142.853 291.797C140.471 292.041 136.744 292.543 134.965 293.411C132.234 294.744 127.438 298.212 127.438 298.212C128.984 301.382 155.213 355.198 155.213 355.198C155.213 355.198 163.634 353.837 161.886 348.766C160.139 343.695 159.067 340.299 159.067 340.299L157.953 307.926C157.934 307.363 157.454 306.927 156.892 306.962L151.808 307.282C151.808 307.282 147.583 303.86 146.233 301.09C145.377 299.334 145.118 295.992 145.043 293.783Z" fill="#E4E4E4"/>
    <path fill-rule="evenodd" clip-rule="evenodd" d="M301.314 387.909C300.245 387.431 298.971 387.908 298.568 389.008C297.743 391.258 296.56 394.829 296.56 396.81C296.56 399.85 297.572 405.684 297.572 405.684C301.097 405.684 360.93 405.684 360.93 405.684C360.93 405.684 363.4 397.513 358.079 396.862C352.758 396.211 349.239 395.686 349.239 395.686L319.675 382.497C319.16 382.267 318.558 382.508 318.343 383.029L316.402 387.741C316.402 387.741 311.476 390.041 308.396 390.041C306.444 390.041 303.332 388.81 301.314 387.909Z" fill="#E4E4E4"/>
    <path fill-rule="evenodd" clip-rule="evenodd" d="M272.61 223.166L236.778 196.835L228.856 216.429L264.34 231.154C274.375 242.95 279.987 247.868 281.175 245.907C282.176 244.253 281.393 242.705 280.672 241.279C280.11 240.169 279.586 239.132 279.972 238.177C280.854 235.997 287.595 236.227 293.982 236.718C300.37 237.21 298.509 234.365 296.968 232.961C290.448 229.055 282.328 225.79 272.61 223.166ZM84.697 269.562C87.9889 262.879 99.1993 197.744 99.1993 197.744L122.674 197.836C122.674 197.836 100.932 268.072 99.1993 272.369C96.9482 277.952 100.772 286.063 103.365 291.563C103.766 292.414 104.138 293.202 104.453 293.909C100.855 295.52 99.1268 293.573 97.3048 291.52C95.247 289.201 93.0694 286.748 87.9434 289.134C85.963 290.056 84.089 291.146 82.2581 292.211C75.9338 295.89 70.1239 299.27 62.2204 294.389C60.9674 293.616 59.5943 290.703 62.9118 288.426C71.177 282.755 83.0877 272.829 84.697 269.562Z" fill="#B28B67"/>
    <path fill-rule="evenodd" clip-rule="evenodd" d="M165.911 99.1718L175.624 97.5045C211.665 128.66 226.468 188.513 270.644 220.22L260.011 233.409C183.373 223.914 164.378 150.907 165.911 99.1718Z" fill="#E87613"/>
    <path fill-rule="evenodd" clip-rule="evenodd" d="M123.567 221.328C123.567 221.328 181.989 221.328 209.515 221.328C213.442 221.328 212.702 215.653 212.134 212.789C205.582 179.74 180.004 144.114 180.004 97.0683L155.213 93.178C134.707 126.18 127.616 166.813 123.567 221.328Z" fill="#DDE3E9"/>
    <path fill-rule="evenodd" clip-rule="evenodd" d="M113.902 244.934C110.04 254.218 106.252 262.319 102.683 268.541H84.25C82.2669 204.375 106.543 155.001 126.86 125.23C122.349 124.907 118.277 123.018 115.703 118.371C106.642 102.009 109.915 93.0008 119.598 90.0397C124.923 88.4115 129.931 89.5228 135.926 90.8532C140.832 91.9419 146.398 93.1772 153.339 93.178C153.342 93.178 153.344 93.178 153.346 93.178C154.019 93.178 154.631 93.2231 155.187 93.3093L163.413 93.7791C163.413 93.7791 196.814 207.058 181.837 244.934H113.902Z" fill="#FF9B21"/>
    <path fill-rule="evenodd" clip-rule="evenodd" d="M113.902 244.934C118.971 232.754 124.168 218.536 129.169 203.853C131.031 220.023 134.131 236.263 139.293 244.934H113.902Z" fill="black" fill-opacity="0.1"/>
</svg>
